<?xml version="1.0"?>

<svg xmlns="http://www.w3.org/2000/svg" viewBox="0 0 200 200" role="img" aria-label="Beat, the Ama Duo Data mascot">
  
  <ellipse cx="100" cy="186" rx="58" ry="6" fill="#131326" opacity="0.10"></ellipse>

  
  <circle cx="100" cy="14" r="6" fill="#FFCD3C"></circle>
  <line x1="100" y1="22" x2="100" y2="34" stroke="#131326" stroke-width="3" stroke-linecap="round"></line>

  
  <path d="M40 100&#xA;           C 40 56, 56 40, 100 40&#xA;           C 144 40, 160 56, 160 100&#xA;           C 160 144, 144 160, 100 160&#xA;           C 56 160, 40 144, 40 100 Z" fill="#6938EF"></path>

  
  <path d="M64 64 C 80 52, 120 52, 136 64 C 122 56, 78 56, 64 64 Z" fill="#A684FF" opacity="0.45"></path>

  
  <circle cx="80" cy="96" r="9" fill="#F5F2EE"></circle>
  <circle cx="120" cy="96" r="9" fill="#F5F2EE"></circle>
  <circle cx="82" cy="98" r="4" fill="#131326"></circle>
  <circle cx="122" cy="98" r="4" fill="#131326"></circle>

  
  <path d="M82 122 Q 100 138 118 122" stroke="#131326" stroke-width="5" stroke-linecap="round" fill="none"></path>
</svg>